<svg width="225" height="32" viewBox="0 0 225 32" fill="none" xmlns="http://www.w3.org/2000/svg">
<ellipse cx="24.8008" cy="14.5996" rx="12.4004" ry="12.4004" fill="#FF633D"/>
<path d="M20.4567 11.3486C22.9422 12.7935 22.9422 16.4057 20.4567 17.8506L5.59253 26.4915C3.107 27.9364 9.81361e-05 26.1302 9.82624e-05 23.2405L9.90178e-05 5.95876C9.91441e-05 3.06897 3.10701 1.26286 5.59254 2.70775L20.4567 11.3486Z" fill="#1743D7"/>
<path fill-rule="evenodd" clip-rule="evenodd" d="M14.4084 21.3672C13.1385 19.4211 12.4004 17.0964 12.4004 14.5993C12.4004 12.1028 13.1381 9.77859 14.4075 7.83282L20.4566 11.3493C22.9421 12.7942 22.9421 16.4064 20.4566 17.8513L14.4084 21.3672Z" fill="#F9F5F3"/>
<path d="M167.758 7.18457C168.001 7.1847 168.135 7.29013 168.159 7.5L171.591 20.415C171.615 20.4616 171.64 20.4962 171.664 20.5195C171.688 20.5192 171.712 20.4846 171.736 20.415L175.132 7.5C175.18 7.29012 175.314 7.18469 175.533 7.18457L178.454 7.21973C178.576 7.21973 178.661 7.25519 178.71 7.3252C178.783 7.39517 178.808 7.48891 178.783 7.60547L172.978 26.2246C172.466 27.8346 171.955 29.0249 171.444 29.7949C170.933 30.5882 170.239 31.148 169.363 31.4746C168.511 31.8012 167.307 31.9648 165.749 31.9648H165.53C165.36 31.9648 165.274 31.8484 165.274 31.6152V29.5498C165.274 29.3167 165.397 29.2003 165.64 29.2002H165.677C166.553 29.1768 167.234 29.0596 167.721 28.8496C168.232 28.6396 168.646 28.2434 168.962 27.6602C169.278 27.1002 169.57 26.2485 169.838 25.1055C169.862 25.0821 169.862 25.0467 169.838 25V24.8945L164.472 7.57031L164.436 7.46484C164.436 7.27839 164.557 7.18468 164.8 7.18457H167.758ZM76.2549 6.90527C78.2748 6.90534 79.8935 7.45321 81.1104 8.5498C82.3272 9.62313 82.9355 11.0352 82.9355 12.7852V24.6504C82.9354 24.8835 82.8136 25 82.5703 25H79.7959C79.5526 25 79.4308 24.8835 79.4307 24.6504V23.6348C79.4306 23.5883 79.406 23.5654 79.3574 23.5654C79.3331 23.5421 79.2966 23.5531 79.248 23.5996C78.1528 24.7196 76.6317 25.2803 74.6846 25.2803C73.1026 25.2803 71.7514 24.8713 70.6318 24.0547C69.5126 23.2147 68.9532 21.8732 68.9531 20.0303C68.9531 18.1171 69.5979 16.6704 70.8877 15.6904C72.2019 14.6871 73.9787 14.1846 76.2178 14.1846H79.2842C79.3815 14.1846 79.4307 14.1383 79.4307 14.0449V13.0654C79.4307 12.0621 79.1506 11.2679 78.5908 10.6846C78.0555 10.1015 77.2767 9.80964 76.2549 9.80957C75.4517 9.80957 74.7815 10.0086 74.2461 10.4053C73.7352 10.7786 73.4185 11.2922 73.2969 11.9453C73.2724 12.1551 73.1388 12.2598 72.8955 12.2598L69.9023 12.085C69.805 12.085 69.7195 12.0613 69.6465 12.0146C69.5738 11.9448 69.5492 11.8635 69.5732 11.7705C69.7193 10.3239 70.4013 9.15716 71.6182 8.27051C72.8594 7.36051 74.4051 6.90527 76.2549 6.90527ZM104.408 6.90527C106.209 6.90527 107.73 7.36055 108.972 8.27051C110.213 9.18051 110.956 10.3472 111.199 11.7705L111.345 12.6104C111.345 12.8201 111.224 12.9484 110.98 12.9951L108.242 13.2051H108.169C108.023 13.2051 107.926 13.1233 107.877 12.96L107.841 12.8203L107.768 12.4004C107.646 11.6771 107.28 11.0701 106.672 10.5801C106.063 10.0668 105.297 9.80957 104.372 9.80957C103.447 9.80959 102.681 10.0786 102.072 10.6152C101.488 11.1519 101.135 11.8634 101.014 12.75C100.892 13.73 100.831 14.8385 100.831 16.0752C100.831 17.4516 100.904 18.5831 101.05 19.4697C101.171 20.3564 101.524 21.0688 102.108 21.6055C102.692 22.1187 103.447 22.375 104.372 22.375C105.321 22.375 106.101 22.1296 106.709 21.6396C107.317 21.1264 107.67 20.4965 107.768 19.75L107.804 19.4004C107.828 19.1672 107.962 19.0618 108.205 19.085L110.943 19.2598C111.187 19.2598 111.309 19.3888 111.309 19.6455L111.199 20.2402C111.004 21.7335 110.286 22.9466 109.045 23.8799C107.804 24.8132 106.258 25.2803 104.408 25.2803C102.534 25.2802 100.989 24.8131 99.7725 23.8799C98.5799 22.9232 97.8498 21.6284 97.582 19.9951C97.4117 18.9451 97.3262 17.6267 97.3262 16.04C97.3262 14.6634 97.4117 13.3686 97.582 12.1553C97.8498 10.5686 98.5917 9.29651 99.8086 8.33984C101.025 7.38328 102.559 6.90536 104.408 6.90527ZM144.973 0.5C145.216 0.5 145.338 0.616537 145.338 0.849609V24.6504C145.338 24.8835 145.216 25 144.973 25H142.198C141.955 25 141.833 24.8835 141.833 24.6504V23.46C141.833 23.4133 141.808 23.3788 141.76 23.3555C141.711 23.3322 141.675 23.3432 141.65 23.3896C140.774 24.6496 139.399 25.2802 137.525 25.2803C136.016 25.2803 134.799 24.8595 133.874 24.0195C132.949 23.1795 132.268 21.8845 131.83 20.1348C131.538 18.9215 131.392 17.5911 131.392 16.1445C131.392 14.6515 131.514 13.3218 131.757 12.1553C132.487 8.65527 134.471 6.90527 137.708 6.90527C138.657 6.90531 139.448 7.05706 140.081 7.36035C140.714 7.66363 141.237 8.11825 141.65 8.72461C141.699 8.77112 141.735 8.79477 141.76 8.79492C141.808 8.79492 141.833 8.76014 141.833 8.69043V0.849609C141.833 0.616537 141.955 0.5 142.198 0.5H144.973ZM155.859 6.90527C157.879 6.90535 159.498 7.45322 160.715 8.5498C161.932 9.62313 162.54 11.0352 162.54 12.7852V24.6504C162.54 24.8835 162.418 25 162.175 25H159.4C159.157 25 159.035 24.8835 159.035 24.6504V23.6348C159.035 23.5883 159.01 23.5654 158.962 23.5654C158.938 23.5421 158.901 23.5531 158.853 23.5996C157.757 24.7196 156.236 25.2803 154.289 25.2803C152.707 25.2803 151.356 24.8714 150.236 24.0547C149.117 23.2147 148.558 21.8733 148.558 20.0303C148.558 18.1171 149.202 16.6704 150.492 15.6904C151.806 14.6871 153.583 14.1846 155.822 14.1846H158.889C158.986 14.1846 159.035 14.1383 159.035 14.0449V13.0654C159.035 12.0621 158.755 11.2679 158.195 10.6846C157.66 10.1015 156.881 9.80966 155.859 9.80957C155.056 9.80957 154.386 10.0086 153.851 10.4053C153.34 10.7786 153.023 11.2921 152.901 11.9453C152.877 12.1551 152.743 12.2598 152.5 12.2598L149.507 12.085C149.409 12.085 149.324 12.0613 149.251 12.0146C149.178 11.9448 149.154 11.8635 149.178 11.7705C149.324 10.3239 150.006 9.15717 151.223 8.27051C152.464 7.36051 154.01 6.90527 155.859 6.90527ZM218.355 7.00977C220.229 7.00979 221.751 7.52318 222.919 8.5498C224.087 9.57647 224.745 10.9304 224.891 12.6104C224.964 13.3804 225 14.7919 225 16.8447C225 17.078 224.878 17.1953 224.635 17.1953H214.559C214.461 17.1953 214.412 17.2417 214.412 17.335C214.412 18.0583 214.437 18.8633 214.485 19.75C214.607 20.7533 215.021 21.5702 215.727 22.2002C216.457 22.8068 217.382 23.1103 218.501 23.1104C219.426 23.1104 220.217 22.8885 220.874 22.4453C221.556 21.9786 222.043 21.3598 222.335 20.5898C222.408 20.3801 222.554 20.2982 222.772 20.3447L224.452 20.6602C224.574 20.6835 224.647 20.7417 224.671 20.835C224.72 20.905 224.732 20.9867 224.708 21.0801C224.294 22.3867 223.54 23.4135 222.444 24.1602C221.349 24.9068 220.023 25.2803 218.465 25.2803C216.688 25.2803 215.24 24.8369 214.12 23.9502C213.001 23.0403 212.307 21.8152 212.039 20.2754C211.942 19.6921 211.881 19.0033 211.856 18.21C211.832 17.4167 211.82 16.7633 211.82 16.25V15.1299C211.82 13.9399 211.869 12.9712 211.967 12.2246C212.162 10.6615 212.831 9.40189 213.975 8.44531C215.143 7.48865 216.603 7.00977 218.355 7.00977ZM90.667 2.66992C90.9102 2.66996 91.0321 2.78653 91.0322 3.01953V7.04492C91.0322 7.13817 91.0806 7.18449 91.1777 7.18457H94.4268C94.6701 7.18457 94.792 7.30182 94.792 7.53516V9.4248C94.792 9.65814 94.6701 9.77539 94.4268 9.77539H91.1777C91.0806 9.77548 91.0322 9.82179 91.0322 9.91504V19.5049C91.0322 20.4615 91.2268 21.1385 91.6162 21.5352C92.03 21.9084 92.6629 22.0947 93.5146 22.0947H94.208C94.4514 22.0947 94.5732 22.212 94.5732 22.4453V24.6504C94.5731 24.8835 94.4513 25 94.208 25L92.7842 25.0352C91.0806 25.0351 89.7902 24.7316 88.9141 24.125C88.0624 23.495 87.6367 22.3399 87.6367 20.6602V9.91504C87.6367 9.82171 87.5876 9.77539 87.4902 9.77539H85.7021C85.4588 9.77539 85.3369 9.65814 85.3369 9.4248V7.53516C85.3369 7.30182 85.4588 7.18457 85.7021 7.18457H87.4902C87.5876 7.18457 87.6367 7.13826 87.6367 7.04492V3.01953C87.6369 2.7865 87.7587 2.66992 88.002 2.66992H90.667ZM60.5859 6.94043C62.2894 6.94046 63.6035 7.46492 64.5283 8.51465C65.4775 9.56458 65.9521 11.0232 65.9521 12.8896V24.6504C65.952 24.8835 65.8302 25 65.5869 25H62.8496C62.6064 25 62.4845 24.8835 62.4844 24.6504V13.3799C62.4844 12.2833 62.2043 11.42 61.6445 10.79C61.1092 10.1601 60.367 9.84482 59.418 9.84473C58.4688 9.84473 57.7013 10.16 57.1172 10.79C56.5576 11.3966 56.2784 12.2366 56.2783 13.3096V24.6504C56.2782 24.8834 56.1561 24.9999 55.9131 25H53.1748C52.9316 25 52.8097 24.8835 52.8096 24.6504V13.3799C52.8096 12.2833 52.5295 11.42 51.9697 10.79C51.41 10.1601 50.6679 9.84478 49.7432 9.84473C48.7941 9.84473 48.0275 10.1602 47.4434 10.79C46.8836 11.3966 46.6036 12.2364 46.6035 13.3096V24.6504C46.6034 24.8834 46.4815 25 46.2383 25H43.5C43.2568 25 43.1349 24.8834 43.1348 24.6504V7.53516C43.1348 7.30185 43.2567 7.1846 43.5 7.18457H46.2383C46.4816 7.1846 46.6035 7.30185 46.6035 7.53516V8.58496C46.6035 8.63163 46.6153 8.6671 46.6396 8.69043C46.6883 8.71372 46.7375 8.70192 46.7861 8.65527C47.7839 7.51204 49.1708 6.94052 50.9473 6.94043C52.0182 6.94043 52.9438 7.15031 53.7227 7.57031C54.5012 7.99025 55.0971 8.60845 55.5107 9.4248C55.5838 9.51814 55.6575 9.50632 55.7305 9.38965C56.2659 8.54983 56.9598 7.93177 57.8115 7.53516C58.6876 7.13856 59.6125 6.94043 60.5859 6.94043ZM117.688 0.5C117.931 0.5 118.053 0.616537 118.053 0.849609V8.62012C118.053 8.68979 118.065 8.73636 118.089 8.75977C118.138 8.75977 118.187 8.7252 118.235 8.65527C119.185 7.51194 120.572 6.94043 122.397 6.94043C124.174 6.9405 125.549 7.46486 126.522 8.51465C127.52 9.56465 128.02 11.0121 128.02 12.8555V24.6504C128.019 24.8835 127.898 25 127.654 25H124.88C124.637 25 124.515 24.8835 124.515 24.6504V13.3447C124.515 12.2716 124.223 11.42 123.639 10.79C123.079 10.1601 122.312 9.84483 121.339 9.84473C120.341 9.84473 119.537 10.1719 118.929 10.8252C118.345 11.4552 118.053 12.3067 118.053 13.3799V24.6504C118.053 24.8835 117.931 25 117.688 25H114.913C114.67 25 114.548 24.8835 114.548 24.6504V0.849609C114.548 0.616537 114.67 0.5 114.913 0.5H117.688ZM184.312 0.5C184.554 0.500139 184.676 0.616676 184.676 0.849609V24.6504C184.676 24.8833 184.554 24.9999 184.312 25H182.449C182.206 25 182.084 24.8835 182.084 24.6504V0.849609C182.084 0.616537 182.206 0.5 182.449 0.5H184.312ZM191.907 7.29004C192.15 7.29019 192.271 7.40671 192.271 7.63965V24.6504C192.271 24.8833 192.15 24.9999 191.907 25H190.045C189.802 25 189.68 24.8835 189.68 24.6504V7.63965C189.68 7.40657 189.802 7.29004 190.045 7.29004H191.907ZM198.348 7.29004C198.566 7.29007 198.7 7.39485 198.749 7.60449L202.619 21.2549C202.643 21.3015 202.668 21.3252 202.692 21.3252C202.741 21.3251 202.777 21.3014 202.802 21.2549L206.635 7.60449C206.684 7.39488 206.817 7.29014 207.036 7.29004L209.117 7.3252C209.239 7.3252 209.324 7.35979 209.373 7.42969C209.446 7.49967 209.471 7.59333 209.446 7.70996L204.188 24.7197C204.115 24.9064 203.982 25 203.787 25H201.67C201.475 25 201.342 24.9064 201.269 24.7197L195.975 7.6748L195.938 7.57031C195.938 7.38374 196.06 7.29014 196.303 7.29004H198.348ZM76.4736 16.8096C75.2812 16.8096 74.32 17.0669 73.5898 17.5801C72.884 18.0934 72.5303 18.8403 72.5303 19.8203C72.5303 20.6835 72.7986 21.337 73.334 21.7803C73.8694 22.2001 74.5752 22.4101 75.4512 22.4102C76.5219 22.4102 77.4468 22.1184 78.2256 21.5352C79.0287 20.9519 79.4306 20.1702 79.4307 19.1904V16.9502C79.4307 16.8569 79.3815 16.8096 79.2842 16.8096H76.4736ZM156.078 16.8096C154.886 16.8096 153.924 17.0667 153.193 17.5801C152.488 18.0934 152.135 18.8405 152.135 19.8203C152.135 20.6835 152.403 21.337 152.938 21.7803C153.474 22.2001 154.18 22.4101 155.056 22.4102C156.126 22.4102 157.051 22.1184 157.83 21.5352C158.633 20.9519 159.035 20.1702 159.035 19.1904V16.9502C159.035 16.8569 158.986 16.8096 158.889 16.8096H156.078ZM138.511 9.80957C137.075 9.80959 136.077 10.545 135.518 12.0146C135.128 13.0646 134.933 14.4185 134.933 16.0752C134.933 17.755 135.091 19.05 135.407 19.96C135.918 21.57 136.941 22.375 138.475 22.375C139.886 22.3749 140.836 21.5934 141.322 20.0303C141.639 19.097 141.797 17.7784 141.797 16.0752C141.797 14.3252 141.626 12.995 141.285 12.085C141.066 11.3383 140.725 10.7786 140.263 10.4053C139.825 10.0087 139.241 9.80957 138.511 9.80957ZM218.392 9.17969C217.297 9.17973 216.396 9.49511 215.69 10.125C215.009 10.7317 214.607 11.5367 214.485 12.54C214.437 13.52 214.412 14.3369 214.412 14.9902C214.412 15.0834 214.461 15.1299 214.559 15.1299H222.262C222.359 15.1299 222.407 15.0834 222.407 14.9902C222.407 14.3136 222.359 13.5084 222.262 12.5752C222.14 11.5719 221.726 10.755 221.021 10.125C220.339 9.495 219.462 9.17969 218.392 9.17969ZM191.03 0.150391C191.614 0.150391 192.102 0.336627 192.491 0.709961C192.881 1.05995 193.075 1.52709 193.075 2.11035C193.075 2.67006 192.88 3.13655 192.491 3.50977C192.102 3.8831 191.614 4.07031 191.03 4.07031C190.422 4.07025 189.924 3.88298 189.534 3.50977C189.169 3.1365 188.986 2.67021 188.986 2.11035C188.986 1.52702 189.169 1.05996 189.534 0.709961C189.923 0.336852 190.422 0.150452 191.03 0.150391Z" fill="white"/>
</svg>
