<svg width="32" height="32" viewBox="0 0 32 32" fill="none" xmlns="http://www.w3.org/2000/svg">
<path d="M2.66675 10.6668V8.00016C2.66675 7.29292 2.9477 6.61464 3.4478 6.11454C3.94789 5.61445 4.62617 5.3335 5.33341 5.3335H26.6667C27.374 5.3335 28.0523 5.61445 28.5524 6.11454C29.0525 6.61464 29.3334 7.29292 29.3334 8.00016V24.0002C29.3334 24.7074 29.0525 25.3857 28.5524 25.8858C28.0523 26.3859 27.374 26.6668 26.6667 26.6668H18.6667M2.66675 16.0002C5.39659 16.2899 7.94457 17.5068 9.8857 19.4479C11.8268 21.389 13.0437 23.937 13.3334 26.6668M2.66675 21.3335C3.99029 21.58 5.20818 22.2214 6.16016 23.1734C7.11213 24.1254 7.75358 25.3433 8.00008 26.6668M2.66675 26.6668H2.68008" stroke="#1743D7" stroke-width="2" stroke-linecap="round" stroke-linejoin="round"/>
</svg>
