<svg width="32" height="32" viewBox="0 0 32 32" fill="none" xmlns="http://www.w3.org/2000/svg">
<path d="M28.5714 5.71436H3.42854C2.16617 5.71436 1.14282 6.7377 1.14282 8.00007V24.0001C1.14282 25.2624 2.16617 26.2858 3.42854 26.2858H28.5714C29.8338 26.2858 30.8571 25.2624 30.8571 24.0001V8.00007C30.8571 6.7377 29.8338 5.71436 28.5714 5.71436Z" stroke="#1743D7" stroke-width="2" stroke-linecap="round" stroke-linejoin="round"/>
<path d="M23.1569 20.308C22.5849 20.308 22.0823 20.2083 21.6489 20.009C21.2156 19.801 20.8776 19.5107 20.6349 19.138C20.4009 18.7567 20.2839 18.319 20.2839 17.825V17.487C20.2839 17.4437 20.2969 17.409 20.3229 17.383C20.3576 17.3483 20.3966 17.331 20.4399 17.331H21.6099C21.6533 17.331 21.6879 17.3483 21.7139 17.383C21.7486 17.409 21.7659 17.4437 21.7659 17.487V17.747C21.7659 18.1197 21.8959 18.423 22.1559 18.657C22.4159 18.891 22.7669 19.008 23.2089 19.008C23.6163 19.008 23.9283 18.904 24.1449 18.696C24.3616 18.488 24.4699 18.215 24.4699 17.877C24.4699 17.643 24.4093 17.4437 24.2879 17.279C24.1666 17.1057 23.9933 16.9497 23.7679 16.811C23.5513 16.6637 23.2133 16.4687 22.7539 16.226C22.2253 15.9487 21.8006 15.7017 21.4799 15.485C21.1593 15.2683 20.8863 14.991 20.6609 14.653C20.4443 14.315 20.3359 13.9033 20.3359 13.418C20.3359 12.6727 20.5829 12.0833 21.0769 11.65C21.5796 11.2167 22.2383 11 23.0529 11C23.6163 11 24.1146 11.1083 24.5479 11.325C24.9813 11.533 25.3149 11.832 25.5489 12.222C25.7829 12.612 25.8999 13.0583 25.8999 13.561V13.834C25.8999 13.8773 25.8826 13.9163 25.8479 13.951C25.8219 13.977 25.7873 13.99 25.7439 13.99H24.5739C24.5306 13.99 24.4916 13.977 24.4569 13.951C24.4309 13.9163 24.4179 13.8773 24.4179 13.834V13.587C24.4179 13.2143 24.2923 12.9067 24.0409 12.664C23.7896 12.4213 23.4516 12.3 23.0269 12.3C22.6543 12.3 22.3596 12.3997 22.1429 12.599C21.9263 12.7897 21.8179 13.0583 21.8179 13.405C21.8179 13.639 21.8743 13.8383 21.9869 14.003C22.0996 14.1677 22.2686 14.3237 22.4939 14.471C22.7279 14.6183 23.0789 14.809 23.5469 15.043C24.1709 15.3983 24.6303 15.6757 24.9249 15.875C25.2196 16.0743 25.4666 16.3343 25.6659 16.655C25.8739 16.967 25.9779 17.3527 25.9779 17.812C25.9779 18.5747 25.7223 19.1813 25.2109 19.632C24.6996 20.0827 24.0149 20.308 23.1569 20.308Z" fill="#1743D7"/>
<path d="M14.3923 20.204C14.349 20.204 14.31 20.191 14.2753 20.165C14.2493 20.1303 14.2363 20.0913 14.2363 20.048V11.26C14.2363 11.2167 14.2493 11.182 14.2753 11.156C14.31 11.1213 14.349 11.104 14.3923 11.104H15.5883C15.6317 11.104 15.6663 11.1213 15.6923 11.156C15.727 11.182 15.7443 11.2167 15.7443 11.26V18.839C15.7443 18.8823 15.766 18.904 15.8093 18.904H19.3843C19.4277 18.904 19.4623 18.9213 19.4883 18.956C19.523 18.982 19.5403 19.0167 19.5403 19.06V20.048C19.5403 20.0913 19.523 20.1303 19.4883 20.165C19.4623 20.191 19.4277 20.204 19.3843 20.204H14.3923Z" fill="#1743D7"/>
<path d="M11.108 11.26C11.108 11.2167 11.121 11.182 11.147 11.156C11.1817 11.1213 11.2207 11.104 11.264 11.104H12.46C12.5033 11.104 12.538 11.1213 12.564 11.156C12.5987 11.182 12.616 11.2167 12.616 11.26V20.048C12.616 20.0913 12.5987 20.1303 12.564 20.165C12.538 20.191 12.5033 20.204 12.46 20.204H11.264C11.2207 20.204 11.1817 20.191 11.147 20.165C11.121 20.1303 11.108 20.0913 11.108 20.048V16.356C11.108 16.3127 11.0863 16.291 11.043 16.291H8.573C8.52967 16.291 8.508 16.3127 8.508 16.356V20.048C8.508 20.0913 8.49067 20.1303 8.456 20.165C8.43 20.191 8.39533 20.204 8.352 20.204H7.156C7.11267 20.204 7.07367 20.191 7.039 20.165C7.013 20.1303 7 20.0913 7 20.048V11.26C7 11.2167 7.013 11.182 7.039 11.156C7.07367 11.1213 7.11267 11.104 7.156 11.104H8.352C8.39533 11.104 8.43 11.1213 8.456 11.156C8.49067 11.182 8.508 11.2167 8.508 11.26V14.913C8.508 14.9563 8.52967 14.978 8.573 14.978H11.043C11.0863 14.978 11.108 14.9563 11.108 14.913V11.26Z" fill="#1743D7"/>
</svg>
