<svg width="32" height="32" viewBox="0 0 32 32" fill="none" xmlns="http://www.w3.org/2000/svg">
<path d="M28.5714 5.71436H3.42854C2.16617 5.71436 1.14282 6.7377 1.14282 8.00007V24.0001C1.14282 25.2624 2.16617 26.2858 3.42854 26.2858H28.5714C29.8338 26.2858 30.8571 25.2624 30.8571 24.0001V8.00007C30.8571 6.7377 29.8338 5.71436 28.5714 5.71436Z" stroke="#1743D7" stroke-width="2" stroke-linecap="round" stroke-linejoin="round"/>
<path d="M24.4037 20.6759C23.6517 20.6759 23.0477 20.4519 22.5917 20.0039C22.1437 19.5479 21.9197 18.9439 21.9197 18.1919V14.4959C21.9197 13.7439 22.1437 13.1439 22.5917 12.6959C23.0477 12.2479 23.6517 12.0239 24.4037 12.0239C25.1637 12.0239 25.7677 12.2479 26.2157 12.6959C26.6717 13.1439 26.8997 13.7439 26.8997 14.4959V18.1919C26.8997 18.9439 26.6717 19.5479 26.2157 20.0039C25.7677 20.4519 25.1637 20.6759 24.4037 20.6759ZM24.4037 19.4639C24.7397 19.4639 25.0077 19.3559 25.2077 19.1399C25.4077 18.9239 25.5077 18.6359 25.5077 18.2759V14.4359C25.5077 14.0679 25.4077 13.7759 25.2077 13.5599C25.0077 13.3439 24.7397 13.2359 24.4037 13.2359C24.0757 13.2359 23.8117 13.3439 23.6117 13.5599C23.4117 13.7759 23.3117 14.0679 23.3117 14.4359V18.2759C23.3117 18.6359 23.4117 18.9239 23.6117 19.1399C23.8117 19.3559 24.0757 19.4639 24.4037 19.4639Z" fill="#1743D7"/>
<path d="M20.5832 16.836C20.7672 17.204 20.8592 17.636 20.8592 18.132C20.8592 18.572 20.7792 18.964 20.6192 19.308C20.4352 19.724 20.1552 20.052 19.7792 20.292C19.4112 20.524 18.9672 20.64 18.4472 20.64C17.9512 20.64 17.5112 20.524 17.1272 20.292C16.7432 20.06 16.4552 19.732 16.2632 19.308C16.1112 18.94 16.0352 18.544 16.0352 18.12C16.0352 17.672 16.1192 17.252 16.2872 16.86C16.4312 16.556 16.6352 16.324 16.8992 16.164C16.9392 16.14 16.9432 16.112 16.9112 16.08C16.6792 15.92 16.4952 15.712 16.3592 15.456C16.1832 15.136 16.0952 14.756 16.0952 14.316C16.0952 13.796 16.2192 13.352 16.4672 12.984C16.6592 12.672 16.9272 12.432 17.2712 12.264C17.6232 12.088 18.0152 12 18.4472 12C18.8872 12 19.2752 12.084 19.6112 12.252C19.9552 12.42 20.2272 12.66 20.4272 12.972C20.6832 13.372 20.8112 13.82 20.8112 14.316C20.8112 14.748 20.7152 15.132 20.5232 15.468C20.3872 15.708 20.2032 15.908 19.9712 16.068C19.9392 16.1 19.9392 16.128 19.9712 16.152C20.2352 16.312 20.4392 16.54 20.5832 16.836ZM17.6072 13.74C17.5112 13.932 17.4632 14.152 17.4632 14.4C17.4632 14.68 17.5192 14.92 17.6312 15.12C17.7112 15.28 17.8192 15.404 17.9552 15.492C18.0992 15.572 18.2632 15.612 18.4472 15.612C18.8312 15.612 19.1112 15.44 19.2872 15.096C19.3832 14.904 19.4312 14.668 19.4312 14.388C19.4312 14.124 19.3832 13.904 19.2872 13.728C19.2152 13.568 19.1032 13.44 18.9512 13.344C18.8072 13.248 18.6352 13.2 18.4352 13.2C18.2512 13.2 18.0872 13.248 17.9432 13.344C17.7992 13.432 17.6872 13.564 17.6072 13.74ZM19.3112 18.816C19.4072 18.6 19.4552 18.336 19.4552 18.024C19.4552 17.68 19.4072 17.4 19.3112 17.184C19.1352 16.8 18.8472 16.608 18.4472 16.608C18.2472 16.608 18.0712 16.66 17.9192 16.764C17.7752 16.868 17.6672 17.012 17.5952 17.196C17.4992 17.42 17.4512 17.696 17.4512 18.024C17.4512 18.336 17.4992 18.6 17.5952 18.816C17.6672 19.016 17.7752 19.172 17.9192 19.284C18.0712 19.388 18.2472 19.44 18.4472 19.44C18.6472 19.44 18.8192 19.388 18.9632 19.284C19.1152 19.172 19.2312 19.016 19.3112 18.816Z" fill="#1743D7"/>
<path d="M12.4857 20.6759C11.7337 20.6759 11.1297 20.4519 10.6737 20.0039C10.2257 19.5479 10.0017 18.9439 10.0017 18.1919V14.4959C10.0017 13.7439 10.2257 13.1439 10.6737 12.6959C11.1297 12.2479 11.7337 12.0239 12.4857 12.0239C13.2457 12.0239 13.8497 12.2479 14.2977 12.6959C14.7537 13.1439 14.9817 13.7439 14.9817 14.4959V18.1919C14.9817 18.9439 14.7537 19.5479 14.2977 20.0039C13.8497 20.4519 13.2457 20.6759 12.4857 20.6759ZM12.4857 19.4639C12.8217 19.4639 13.0897 19.3559 13.2897 19.1399C13.4897 18.9239 13.5897 18.6359 13.5897 18.2759V14.4359C13.5897 14.0679 13.4897 13.7759 13.2897 13.5599C13.0897 13.3439 12.8217 13.2359 12.4857 13.2359C12.1577 13.2359 11.8937 13.3439 11.6937 13.5599C11.4937 13.7759 11.3937 14.0679 11.3937 14.4359V18.2759C11.3937 18.6359 11.4937 18.9239 11.6937 19.1399C11.8937 19.3559 12.1577 19.4639 12.4857 19.4639Z" fill="#1743D7"/>
<path d="M7.284 12.18C7.324 12.156 7.384 12.144 7.464 12.144H8.616C8.656 12.144 8.688 12.16 8.712 12.192C8.744 12.216 8.76 12.248 8.76 12.288V20.4C8.76 20.44 8.744 20.476 8.712 20.508C8.688 20.532 8.656 20.544 8.616 20.544H7.512C7.472 20.544 7.436 20.532 7.404 20.508C7.38 20.476 7.368 20.44 7.368 20.4V13.596C7.368 13.58 7.36 13.564 7.344 13.548C7.328 13.532 7.312 13.528 7.296 13.536L6.204 13.836L6.156 13.848C6.076 13.848 6.036 13.804 6.036 13.716L6 12.912C6 12.832 6.032 12.776 6.096 12.744L7.284 12.18Z" fill="#1743D7"/>
</svg>
