<svg width="32" height="32" viewBox="0 0 32 32" fill="none" xmlns="http://www.w3.org/2000/svg">
<path d="M9.84066 4C7.53336 5.51798 5.76668 7.76423 4.80548 10.402C3.84428 13.0397 3.74036 15.9268 4.5093 18.6304C5.27824 21.334 6.87861 23.7084 9.07046 25.3977C11.2623 27.0869 13.9276 28 16.6666 28C19.4056 28 22.0709 27.0869 24.2627 25.3977C26.4546 23.7084 28.0549 21.334 28.8239 18.6304C29.5928 15.9268 29.4889 13.0397 28.5277 10.402C27.5665 7.76423 25.7998 5.51798 23.4925 4M22.2962 10.629C23.0803 11.7042 23.5578 12.9827 23.6752 14.3213C23.7925 15.6599 23.5451 17.0056 22.9607 18.2077C22.3763 19.4098 21.4779 20.4208 20.3662 21.1274C19.2545 21.834 17.9734 22.2083 16.6666 22.2083C15.3597 22.2083 14.0787 21.834 12.967 21.1274C11.8553 20.4208 10.9569 19.4098 10.3725 18.2077C9.78802 17.0056 9.54062 15.6599 9.65798 14.3213C9.77535 12.9827 10.2528 11.7042 11.037 10.629" stroke="#1743D7" stroke-width="2" stroke-linecap="round" stroke-linejoin="round"/>
<path d="M17.3334 4L14.6667 8.57143H18.6667L16.0001 14.6667" stroke="#1743D7" stroke-width="2" stroke-linecap="round" stroke-linejoin="round"/>
</svg>
